<svg width="32" height="32" viewBox="0 0 32 32" fill="none" xmlns="http://www.w3.org/2000/svg">
<circle cx="16" cy="16" r="16" fill="#CA9841" fill-opacity="0.19"/>
<path d="M16 5C13.8244 5 11.6977 5.64514 9.88872 6.85383C8.07978 8.06253 6.66989 9.78049 5.83732 11.7905C5.00476 13.8005 4.78692 16.0122 5.21136 18.146C5.6358 20.2798 6.68345 22.2398 8.22182 23.7782C9.7602 25.3166 11.7202 26.3642 13.854 26.7886C15.9878 27.2131 18.1995 26.9952 20.2095 26.1627C22.2195 25.3301 23.9375 23.9202 25.1462 22.1113C26.3549 20.3023 27 18.1756 27 16C26.9966 13.0837 25.8365 10.2878 23.7744 8.22563C21.7122 6.16347 18.9163 5.00344 16 5ZM16 25C14.22 25 12.4799 24.4722 10.9999 23.4832C9.51982 22.4943 8.36627 21.0887 7.68508 19.4442C7.00389 17.7996 6.82566 15.99 7.17293 14.2442C7.5202 12.4984 8.37736 10.8947 9.63604 9.63604C10.8947 8.37737 12.4984 7.5202 14.2442 7.17293C15.99 6.82567 17.7996 7.0039 19.4441 7.68508C21.0887 8.36627 22.4943 9.51983 23.4832 10.9999C24.4722 12.4799 25 14.22 25 16C24.9971 18.3861 24.0479 20.6735 22.3607 22.3607C20.6735 24.0479 18.3861 24.9971 16 25Z" fill="#CA9841"/>
<path d="M17 15.586V10C17 9.73478 16.8946 9.48043 16.7071 9.29289C16.5196 9.10536 16.2652 9 16 9C15.7348 9 15.4804 9.10536 15.2929 9.29289C15.1054 9.48043 15 9.73478 15 10V16C15.0001 16.2652 15.1055 16.5195 15.293 16.707L18.293 19.707C18.4816 19.8892 18.7342 19.99 18.9964 19.9877C19.2586 19.9854 19.5094 19.8802 19.6948 19.6948C19.8802 19.5094 19.9854 19.2586 19.9877 18.9964C19.99 18.7342 19.8892 18.4816 19.707 18.293L17 15.586Z" fill="#CA9841"/>
</svg>
