<svg width="64" height="64" viewBox="0 0 64 64" fill="none" xmlns="http://www.w3.org/2000/svg">
<circle cx="32" cy="32" r="32" fill="#F5ECDB"/>
<path d="M45.5138 26.2906C44.0242 22.7746 41.2254 19.9758 37.7094 18.4863C35.9021 17.7252 33.961 17.3331 32 17.3331C30.0391 17.3331 28.0979 17.7252 26.2906 18.4863C22.7746 19.9758 19.9758 22.7746 18.4863 26.2906C17.7252 28.0979 17.3331 30.0391 17.3331 32C17.3331 33.961 17.7252 35.9021 18.4863 37.7094C19.9758 41.2254 22.7746 44.0242 26.2906 45.5138C28.0979 46.2748 30.0391 46.6669 32 46.6669C33.961 46.6669 35.9021 46.2748 37.7094 45.5138C41.2254 44.0242 44.0242 41.2254 45.5138 37.7094C46.2748 35.9021 46.6669 33.961 46.6669 32C46.6669 30.0391 46.2748 28.0979 45.5138 26.2906ZM32 44C25.3831 44 20 38.6169 20 32C20 25.3831 25.3831 20 32 20C38.6169 20 44 25.3831 44 32C44 38.6169 38.6169 44 32 44Z" fill="#CA9841"/>
<path d="M33.3331 31.4475V24C33.3331 23.6465 33.1927 23.3074 32.9427 23.0574C32.6926 22.8074 32.3536 22.6669 32 22.6669C31.6464 22.6669 31.3073 22.8074 31.0573 23.0574C30.8073 23.3074 30.6669 23.6465 30.6669 24V32C30.6667 32.1751 30.7012 32.3485 30.7682 32.5102C30.8352 32.672 30.9336 32.8189 31.0575 32.9425L35.0575 36.9425C35.1812 37.067 35.3282 37.1658 35.4901 37.2333C35.652 37.3009 35.8257 37.3358 36.0012 37.336C36.1766 37.3363 36.3504 37.302 36.5125 37.2349C36.6747 37.1679 36.822 37.0695 36.946 36.9454C37.0701 36.8213 37.1684 36.674 37.2354 36.5118C37.3023 36.3497 37.3367 36.1759 37.3363 36.0004C37.336 35.825 37.301 35.6513 37.2335 35.4894C37.1659 35.3275 37.067 35.1805 36.9425 35.0569L33.3331 31.4475Z" fill="#CA9841"/>
</svg>
