<svg width="64" height="64" viewBox="0 0 64 64" fill="none" xmlns="http://www.w3.org/2000/svg">
<path d="M49.9046 41.9977C53.9433 37.6401 56.4164 31.812 56.4164 25.4162C56.4163 11.9531 45.4633 1 32 1C18.5368 1 7.58376 11.9531 7.58376 25.4162C7.58376 32.3049 10.4523 38.5354 15.0563 42.9787L9.03863 55.9039C8.96147 56.0695 8.93119 56.2532 8.95109 56.4349C8.97098 56.6166 9.04028 56.7893 9.15147 56.9344C9.26265 57.0794 9.41146 57.1913 9.58173 57.2577C9.752 57.3241 9.93722 57.3426 10.1173 57.3111L17.502 56.0207L21.2685 62.5025C21.3603 62.6606 21.4937 62.7904 21.6541 62.878C21.8145 62.9656 21.9959 63.0075 22.1785 62.9992C22.3611 62.991 22.5379 62.9328 22.6898 62.831C22.8416 62.7293 22.9627 62.5879 23.0398 62.4221L28.9876 49.6466C29.975 49.7686 30.9801 49.8325 32 49.8325C33.4669 49.8325 34.9039 49.7022 36.3003 49.4531L40.7894 59.8757C40.8617 60.0436 40.9786 60.1885 41.1274 60.2945C41.2762 60.4006 41.4513 60.4639 41.6336 60.4774C41.8159 60.491 41.9983 60.4543 42.1612 60.3714C42.3241 60.2885 42.4612 60.1626 42.5575 60.0072L46.5104 53.6375L53.8544 55.1415C54.0334 55.1784 54.2191 55.1654 54.3913 55.1039C54.5634 55.0425 54.7154 54.9349 54.8306 54.793C54.946 54.6513 55.0203 54.4806 55.0455 54.2996C55.0707 54.1186 55.0458 53.9342 54.9735 53.7664L49.9046 41.9977ZM22.0353 59.8411L18.8811 54.4132C18.7783 54.2365 18.6238 54.0955 18.4385 54.0093C18.2531 53.923 18.0458 53.8955 17.8444 53.9306L11.6604 55.0112L16.618 44.3629C19.5689 46.7631 23.0886 48.4891 26.941 49.304L22.0353 59.8411ZM9.58376 25.4162C9.58376 13.0559 19.6396 3 32 3C44.3604 3 54.4163 13.0559 54.4163 25.4162C54.4163 37.7766 44.3604 47.8325 32 47.8325C19.6396 47.8325 9.58376 37.7766 9.58376 25.4162ZM46.2288 51.5386C46.0284 51.4974 45.8203 51.5187 45.6325 51.5996C45.4447 51.6805 45.2862 51.8172 45.1785 51.991L41.8684 57.325L38.2873 49.0104C42.0948 47.9949 45.5394 46.0811 48.3779 43.5091L52.3786 52.7981L46.2288 51.5386ZM48.8063 32.2979C48.7584 31.8976 48.7138 31.5415 48.6736 31.2217C48.5106 29.9225 48.4289 29.2706 48.5199 28.7549C48.6109 28.2392 48.9106 27.6544 49.5081 26.4894C49.6551 26.2026 49.8189 25.8832 50.0006 25.5236C50.9485 23.6485 50.556 21.4225 49.024 19.9846C48.7301 19.7087 48.467 19.4648 48.2308 19.2455C47.2709 18.355 46.789 17.9081 46.5273 17.4546C46.2655 17.0012 46.1193 16.3605 45.8281 15.084C45.7564 14.7697 45.6766 14.42 45.5846 14.0275C45.1055 11.9817 43.3739 10.5289 41.276 10.4121C40.8736 10.3896 40.5153 10.3719 40.1934 10.3559C38.8856 10.2907 38.2293 10.2581 37.7371 10.079C37.2451 9.89975 36.7213 9.503 35.6776 8.71225C35.3898 8.49371 35.1013 8.27609 34.8121 8.05937C33.13 6.80037 30.8699 6.80037 29.1876 8.05937C28.8649 8.30087 28.5789 8.51762 28.322 8.71225C27.2784 9.50287 26.7545 9.89975 26.2625 10.079C25.7704 10.2581 25.114 10.2906 23.8064 10.3559C23.4845 10.3719 23.1261 10.3897 22.7238 10.4121C20.6259 10.5289 18.8944 11.9817 18.4151 14.0275C18.3233 14.4199 18.2434 14.7697 18.1718 15.0839C17.8805 16.3604 17.7343 17.0011 17.4725 17.4546C17.2108 17.9081 16.7289 18.355 15.7691 19.2454C15.5039 19.491 15.2395 19.7374 14.9758 19.9846C13.4438 21.4225 13.0513 23.6485 13.9991 25.5236C14.181 25.8832 14.3446 26.2026 14.4916 26.4894C15.0891 27.6544 15.389 28.2392 15.4799 28.7549C15.5709 29.2706 15.489 29.9226 15.3261 31.2217C15.286 31.5416 15.2414 31.8976 15.1935 32.2979C14.9441 34.384 16.0743 36.3415 18.0058 37.1687C18.3763 37.3275 18.707 37.4669 19.004 37.592C20.2105 38.1004 20.8161 38.3556 21.2173 38.6922C21.6184 39.0289 21.9749 39.5809 22.6851 40.6809C22.8599 40.9516 23.0546 41.253 23.2753 41.5904C24.1636 42.9487 25.6331 43.7191 27.183 43.719C27.6394 43.719 28.103 43.6521 28.5605 43.5139C28.9463 43.3972 29.2891 43.2915 29.597 43.1965C30.8481 42.8104 31.4761 42.6166 31.9998 42.6166C32.5234 42.6166 33.1514 42.8104 34.4026 43.1965C34.7105 43.2915 35.0535 43.3972 35.4391 43.5139C37.4503 44.1217 39.5744 43.3487 40.7244 41.5902C40.945 41.2529 41.1396 40.9515 41.3145 40.6807C42.0248 39.5807 42.3813 39.0286 42.7824 38.6921C43.1835 38.3556 43.7891 38.1004 44.9956 37.5919C45.2926 37.4667 45.6234 37.3274 45.9939 37.1686C47.9255 36.3415 49.0556 34.384 48.8063 32.2979ZM47.7285 25.5766C46.353 28.2591 46.3141 28.4795 46.6893 31.4705C46.7289 31.7867 46.7731 32.1391 46.8204 32.5351C46.9658 33.751 46.3323 34.8481 45.2066 35.3302C44.84 35.4872 44.5129 35.625 44.219 35.7489C41.4411 36.9195 41.2698 37.0634 39.6345 39.5957C39.4409 39.8963 39.2463 40.1962 39.0508 40.4955C38.3806 41.5202 37.1901 41.9536 36.0179 41.5992C35.6363 41.4839 35.297 41.3792 34.9924 41.2852C32.1119 40.3964 31.8881 40.3962 29.0075 41.2852C28.7029 41.3792 28.3636 41.4839 27.982 41.5992C26.8096 41.9539 25.6194 41.5202 24.9491 40.4955C24.7309 40.1619 24.5383 39.8635 24.3654 39.5957C22.7301 37.0632 22.5588 36.9195 19.7809 35.7489C19.487 35.6251 19.1599 35.4872 18.7933 35.3302C17.6676 34.8481 17.0341 33.7509 17.1795 32.5351C17.2268 32.1391 17.271 31.7869 17.3108 31.4705C17.6859 28.4794 17.647 28.2591 16.2715 25.5766C16.126 25.2929 15.9641 24.977 15.7843 24.6211C15.2319 23.5284 15.4518 22.2808 16.3446 21.4427C16.6355 21.1698 16.8958 20.9284 17.1295 20.7115C19.3394 18.6614 19.4513 18.4676 20.1218 15.5285C20.1926 15.2177 20.2716 14.8716 20.3625 14.4834C20.6418 13.2911 21.6123 12.4767 22.8349 12.4087C23.233 12.3866 23.5875 12.369 23.9059 12.3531C26.9168 12.2032 27.127 12.1266 29.5299 10.3062C29.784 10.1137 30.067 9.89937 30.3863 9.66037C30.8764 9.2935 31.4383 9.11012 32 9.11012C32.5618 9.11012 33.1235 9.29362 33.6138 9.66037C33.933 9.89925 34.2159 10.1137 34.47 10.3062C36.8729 12.1266 37.0831 12.2032 40.094 12.3531C40.4124 12.369 40.767 12.3867 41.165 12.4087C42.3876 12.4767 43.3581 13.2911 43.6374 14.4834C43.7284 14.8716 43.8073 15.2179 43.8783 15.5286C44.5488 18.4676 44.6606 18.6614 46.8706 20.7115C47.1044 20.9284 47.3646 21.1699 47.6554 21.4427C48.5483 22.2808 48.7681 23.5284 48.2158 24.6211C48.0544 24.9401 47.892 25.2587 47.7285 25.5766ZM40.5791 22.082L35.2314 21.8212L33.331 16.8159C33.1196 16.259 32.5971 15.8991 32 15.8991C31.4028 15.8991 30.8803 16.259 30.669 16.8159L28.7686 21.8212L23.421 22.082C22.825 22.1109 22.3206 22.4962 22.1361 23.0639C21.9516 23.6315 22.133 24.2397 22.5981 24.6137L26.7713 27.9679L25.3666 33.1344C25.2101 33.7101 25.421 34.3089 25.9038 34.6596C26.1464 34.8373 26.4392 34.9333 26.74 34.9339C27.0101 34.9339 27.2809 34.8558 27.5203 34.699L32 31.7669L36.4796 34.6992C36.979 35.0261 37.6135 35.0104 38.0964 34.6599C38.5791 34.309 38.7899 33.7102 38.6333 33.1346L37.2288 27.9681L41.402 24.614C41.8671 24.24 42.0484 23.6317 41.8639 23.0641C41.6794 22.4965 41.175 22.111 40.5791 22.082ZM31.4613 17.5259C31.4613 17.5257 31.4613 17.5257 31.4613 17.5259V17.5259ZM35.6818 26.6455C35.4658 26.819 35.3051 27.0517 35.2195 27.3152C35.1339 27.5786 35.127 27.8613 35.1998 28.1286L36.3051 32.1946L32.7798 29.887C32.548 29.7352 32.277 29.6544 32 29.6543C31.7229 29.6543 31.4519 29.7351 31.2201 29.8869L27.6946 32.1946L28.8003 28.1281C28.8728 27.8609 28.8658 27.5783 28.7802 27.3149C28.6946 27.0516 28.534 26.819 28.3181 26.6455L25.0339 24.0057L29.2421 23.8005C29.5189 23.7872 29.7858 23.6934 30.01 23.5305C30.2342 23.3677 30.4061 23.143 30.5044 22.8839L32 18.9447L33.4956 22.8841C33.5939 23.1431 33.7657 23.3678 33.9898 23.5306C34.2139 23.6934 34.4807 23.7872 34.7574 23.8006L38.966 24.0059L35.6818 26.6455Z" fill="#CA9841"/>
</svg>
