<svg width="64" height="64" viewBox="0 0 64 64" fill="none" xmlns="http://www.w3.org/2000/svg">
<path d="M53.242 22.873C53.5675 22.8742 53.89 22.81 54.1903 22.6843C54.4905 22.5586 54.7625 22.3738 54.99 22.141C56.63 20.47 59.381 17.123 59.381 13.479C59.387 12.2495 59.0219 11.0469 58.3335 10.0282C57.6451 9.00953 56.6654 8.22224 55.5225 7.76921C54.3795 7.31618 53.1265 7.21849 51.9272 7.48891C50.7278 7.75933 49.6379 8.38528 48.8 9.28495C47.6664 10.4854 47.055 12.0864 47.1 13.737C47.225 17.281 49.894 20.515 51.475 22.128C51.7047 22.3641 51.9794 22.5517 52.283 22.6796C52.5865 22.8076 52.9126 22.8733 53.242 22.873ZM50.253 10.654C50.8183 10.05 51.5524 9.63013 52.3596 9.44913C53.1669 9.26813 54.0099 9.33435 54.779 9.63916C55.5481 9.94397 56.2076 10.4732 56.6717 11.1581C57.1358 11.843 57.3829 12.6517 57.381 13.479C57.381 16.412 54.989 19.287 53.563 20.739C53.4738 20.825 53.3541 20.8722 53.2302 20.8701C53.1063 20.8681 52.9883 20.8169 52.902 20.728C51.525 19.323 49.202 16.537 49.102 13.667C49.0721 12.5499 49.486 11.4666 50.253 10.654ZM56.523 13.51C56.523 12.8602 56.3303 12.2251 55.9694 11.6849C55.6084 11.1447 55.0954 10.7236 54.4951 10.475C53.8949 10.2264 53.2344 10.1613 52.5971 10.2881C51.9599 10.4148 51.3746 10.7277 50.9152 11.1871C50.4557 11.6465 50.1429 12.2319 50.0161 12.8691C49.8894 13.5063 49.9544 14.1668 50.2031 14.7671C50.4517 15.3673 50.8727 15.8804 51.413 16.2413C51.9532 16.6023 52.5883 16.795 53.238 16.795C54.1089 16.7939 54.9438 16.4475 55.5597 15.8316C56.1755 15.2158 56.5219 14.3809 56.523 13.51ZM51.953 13.51C51.953 13.2558 52.0284 13.0074 52.1696 12.796C52.3108 12.5847 52.5114 12.42 52.7463 12.3228C52.9811 12.2255 53.2394 12.2001 53.4887 12.2496C53.738 12.2992 53.9669 12.4216 54.1466 12.6013C54.3263 12.781 54.4487 13.01 54.4983 13.2593C54.5479 13.5085 54.5224 13.7669 54.4252 14.0017C54.3279 14.2365 54.1632 14.4372 53.9519 14.5784C53.7406 14.7196 53.4921 14.795 53.238 14.795C52.8975 14.7942 52.5713 14.6585 52.3306 14.4176C52.0899 14.1768 51.9535 13.8504 51.953 13.51ZM59.569 49.329C59.5101 49.1189 59.3841 48.9338 59.2102 48.802C59.0364 48.6702 58.8242 48.5989 58.606 48.599H56.819V43.683C56.8189 43.5217 56.7798 43.3629 56.7051 43.22C56.6304 43.0771 56.5222 42.9544 56.3898 42.8623C56.2574 42.7703 56.1046 42.7116 55.9447 42.6914C55.7847 42.6711 55.6222 42.6898 55.471 42.746L52.571 43.822C51.9749 42.4129 51.0526 41.1657 49.88 40.183H53.818C54.6137 40.183 55.3767 39.8669 55.9393 39.3043C56.5019 38.7417 56.818 37.9786 56.818 37.183V28.6C56.818 27.8043 56.5019 27.0412 55.9393 26.4786C55.3767 25.916 54.6137 25.6 53.818 25.6H42.3C42.9255 25.3635 43.4978 25.0052 43.9838 24.5458C44.4698 24.0864 44.8597 23.5352 45.131 22.924C45.8526 21.4394 45.9551 19.7291 45.416 18.169C45.3107 17.8006 45.1173 17.4634 44.8525 17.1865C44.5876 16.9097 44.2593 16.7015 43.896 16.58C43.4746 16.4613 43.0294 16.4555 42.605 16.563C42.9363 14.9144 43.0148 13.2251 42.838 11.553C42.6503 9.89936 42.0765 8.31304 41.163 6.92195C39.221 4.14895 36.721 3.00995 32.246 2.86195C28.346 2.73295 25.437 3.59595 23.623 5.42695C22.6032 6.4506 21.9617 7.79062 21.804 9.22695C20.344 10.567 20.171 13.027 21.251 16.542C20.8861 16.4709 20.5098 16.4846 20.151 16.582C19.7901 16.7047 19.4642 16.9129 19.2013 17.189C18.9383 17.465 18.7461 17.8005 18.641 18.167C18.102 19.7274 18.2045 21.438 18.926 22.923C19.1967 23.5338 19.5858 24.085 20.0709 24.5445C20.556 25.004 21.1274 25.3627 21.752 25.6H10.181C9.38535 25.6 8.62229 25.916 8.05968 26.4786C7.49707 27.0412 7.181 27.8043 7.181 28.6V37.183C7.181 37.9786 7.49707 38.7417 8.05968 39.3043C8.62229 39.8669 9.38535 40.183 10.181 40.183H14.1C12.9431 41.1709 12.0358 42.4181 11.452 43.823L8.583 42.746C8.43166 42.6892 8.26883 42.67 8.10844 42.69C7.94806 42.71 7.7949 42.7685 7.6621 42.8606C7.52929 42.9527 7.42079 43.0757 7.34588 43.2189C7.27098 43.3621 7.2319 43.5213 7.232 43.683V48.6H5.394C5.17583 48.5999 4.96363 48.6712 4.78976 48.803C4.6159 48.9348 4.48991 49.1199 4.431 49.33C3.72741 51.8365 3.72741 54.4884 4.431 56.995C4.48991 57.205 4.6159 57.3901 4.78976 57.5219C4.96363 57.6537 5.17583 57.725 5.394 57.725H7.232V60.152C7.232 60.4172 7.33736 60.6715 7.52489 60.8591C7.71243 61.0466 7.96678 61.152 8.232 61.152H55.819C56.0842 61.152 56.3386 61.0466 56.5261 60.8591C56.7136 60.6715 56.819 60.4172 56.819 60.152V57.724H58.606C58.8242 57.724 59.0364 57.6527 59.2102 57.5209C59.3841 57.3891 59.5101 57.204 59.569 56.994C60.2726 54.4874 60.2726 51.8355 59.569 49.329ZM50.7 44.517L47.254 45.8L47.388 40.9C48.8589 41.7097 50.0227 42.9806 50.7 44.517ZM32.318 42.727C32.1267 42.6682 31.9223 42.6682 31.731 42.727L22.847 45.455L23.033 38.402L23.659 38.173C24.7308 39.2976 26.0184 40.1945 27.4448 40.8101C28.8712 41.4256 30.4071 41.7472 31.9606 41.7555C33.5141 41.7638 35.0533 41.4587 36.4862 40.8584C37.9191 40.2582 39.2163 39.3751 40.3 38.262L41 38.509L41.183 45.449L32.318 42.727ZM24.745 30.827C24.88 30.969 25.015 31.1 25.145 31.235V33.835C25.1439 34.3223 24.9937 34.7976 24.7144 35.197C24.4352 35.5964 24.0403 35.9007 23.583 36.069L22.903 36.318C22.7575 36.0232 22.5173 35.7857 22.2209 35.6436C21.9245 35.5015 21.589 35.4628 21.268 35.534L18.668 36.098C18.1627 36.2089 17.701 36.4655 17.3401 36.8361C16.9791 37.2067 16.7346 37.6749 16.637 38.183H15.937V27.6H22.69C23.1592 28.799 23.8565 29.8951 24.745 30.827ZM27.555 10.866C28.527 10.424 30.7 11.149 31.6 11.566C31.733 11.6284 31.8781 11.6608 32.025 11.6608C32.1719 11.6608 32.317 11.6284 32.45 11.566C33.35 11.145 35.525 10.42 36.495 10.866C38.011 11.558 39.207 12.104 38.895 16.107C38.8807 16.2899 38.917 16.4733 39 16.637L40.05 18.7V23.939C40.0576 25.9898 39.2718 27.9642 37.857 29.449C36.6154 30.8886 35.0579 32.0218 33.306 32.76C32.4691 32.9993 31.5819 32.9993 30.745 32.76C28.993 32.0215 27.4352 30.8884 26.193 29.449C24.7778 27.9636 23.992 25.9885 24 23.937V18.7L25.048 16.638C25.1312 16.474 25.1675 16.2902 25.153 16.107C24.843 12.1 26.039 11.558 27.555 10.866ZM45.36 36.1L42.76 35.537C42.4209 35.462 42.0662 35.5092 41.7585 35.6701C41.4508 35.8311 41.2098 36.0956 41.078 36.417L40.369 36.165C39.9394 36.0125 39.5676 35.7309 39.3046 35.3586C39.0415 34.9863 38.9002 34.5418 38.9 34.086V31.235C39.035 31.1 39.169 30.969 39.3 30.827C40.1903 29.8956 40.8904 28.7994 41.361 27.6H48.1V38.183H47.4C47.3012 37.6742 47.0553 37.2056 46.6926 36.8353C46.33 36.465 45.8666 36.2093 45.36 36.1ZM38.417 37.32C36.6411 38.9059 34.3393 39.7753 31.9584 39.7594C29.5776 39.7435 27.2875 38.8434 25.533 37.234C26.0373 36.8222 26.4439 36.3036 26.7235 35.7156C27.0031 35.1277 27.1488 34.485 27.15 33.834V33C28.0409 33.707 29.0405 34.2649 30.11 34.652C31.3588 35.0271 32.6902 35.0271 33.939 34.652C35.0089 34.2651 36.0089 33.7071 36.9 33V34.084C36.9004 34.7011 37.0366 35.3106 37.2987 35.8693C37.5609 36.428 37.9426 36.9222 38.417 37.317V37.32ZM18.8 46.576L18.583 38.7C18.5791 38.5491 18.6281 38.4015 18.7214 38.2829C18.8147 38.1642 18.9465 38.0818 19.094 38.05L21.054 37.625L20.832 46.071L18.979 46.64L18.8 46.576ZM43.2 46.068L42.978 37.628L44.938 38.052C45.0855 38.0842 45.2172 38.1668 45.3105 38.2856C45.4037 38.4044 45.4527 38.552 45.449 38.703L45.235 46.547L45.021 46.626L43.2 46.068ZM54.819 28.6V37.183C54.819 37.4482 54.7136 37.7025 54.5261 37.8901C54.3386 38.0776 54.0842 38.183 53.819 38.183H53.375V27.6H53.819C54.0842 27.6 54.3386 27.7053 54.5261 27.8928C54.7136 28.0804 54.819 28.3347 54.819 28.6ZM51.375 27.6V38.183H50.1V27.6H51.375ZM43.306 18.492C43.374 18.513 43.462 18.65 43.53 18.842C43.8864 19.8992 43.8146 21.054 43.33 22.059C43.0568 22.6582 42.613 23.1636 42.054 23.512V18.992C42.748 18.538 43.175 18.453 43.306 18.491V18.492ZM23.34 10.555C23.4804 10.4592 23.5942 10.3293 23.6705 10.1774C23.7468 10.0256 23.7831 9.85676 23.776 9.68695C23.8232 8.61015 24.2758 7.59101 25.043 6.83395C26.43 5.43395 28.906 4.75695 32.179 4.85995C36.032 4.98695 37.953 5.82695 39.523 8.06795C40.234 9.16808 40.6854 10.4156 40.843 11.716C40.9109 12.483 40.9316 13.2534 40.905 14.023C40.912 12.9214 40.5694 11.846 39.9264 10.9514C39.2835 10.0569 38.3734 9.38942 37.327 9.04495C35.606 8.25895 33.058 9.14495 32.027 9.57195C30.994 9.14695 28.446 8.25795 26.727 9.04495C24.606 10.013 22.872 11.208 23.137 15.87C22.307 13.131 22.356 11.226 23.34 10.555ZM20.724 22.055C20.2395 21.05 20.1677 19.8952 20.524 18.838C20.592 18.647 20.68 18.509 20.748 18.488C20.875 18.45 21.302 18.529 22.005 18.988V23.509C21.4446 23.1618 20.999 22.6571 20.724 22.058V22.055ZM9.181 37.183V28.6C9.181 28.3347 9.28636 28.0804 9.47389 27.8928C9.66143 27.7053 9.91578 27.6 10.181 27.6H10.655V38.183H10.181C9.91578 38.183 9.66143 38.0776 9.47389 37.8901C9.28636 37.7025 9.181 37.4482 9.181 37.183ZM12.655 38.183V27.6H13.934V38.183H12.655ZM16.641 40.848L16.777 45.818L13.325 44.524C13.9929 42.9656 15.1587 41.6728 16.64 40.848H16.641ZM6.176 50.6H8.269C8.60977 50.5932 8.94846 50.6545 9.26526 50.7803C9.58205 50.906 9.87057 51.0937 10.114 51.3323C10.3573 51.5709 10.5507 51.8557 10.6827 52.17C10.8146 52.4842 10.8826 52.8216 10.8826 53.1625C10.8826 53.5033 10.8146 53.8407 10.6827 54.155C10.5507 54.4692 10.3573 54.754 10.114 54.9926C9.87057 55.2312 9.58205 55.4189 9.26526 55.5446C8.94846 55.6704 8.60977 55.7317 8.269 55.725H6.176C5.81271 54.0359 5.81271 52.289 6.176 50.6ZM18.946 53.448C18.6808 53.448 18.4264 53.5533 18.2389 53.7408C18.0514 53.9284 17.946 54.1827 17.946 54.448V59.148H9.232V57.617C10.2505 57.3972 11.1629 56.8352 11.8174 56.0245C12.4719 55.2138 12.8288 54.2034 12.8288 53.1615C12.8288 52.1195 12.4719 51.1091 11.8174 50.2984C11.1629 49.4877 10.2505 48.9257 9.232 48.706V45.125L18.595 48.636C18.802 48.7129 19.0286 48.7199 19.24 48.656L31.026 45.036V59.151H19.946V54.451C19.9465 54.3193 19.9211 54.1888 19.871 54.067C19.821 53.9453 19.7474 53.8345 19.6545 53.7413C19.5616 53.648 19.4512 53.574 19.3296 53.5235C19.208 53.473 19.0777 53.447 18.946 53.447V53.448ZM33.026 59.148V45.036L44.055 48.424V52.583C44.055 52.8482 44.1604 53.1025 44.3479 53.2901C44.5354 53.4776 44.7898 53.583 45.055 53.583C45.3202 53.583 45.5746 53.4776 45.7621 53.2901C45.9496 53.1025 46.055 52.8482 46.055 52.583V48.376L54.82 45.12V48.691C53.7895 48.9011 52.8633 49.4608 52.1981 50.2754C51.5329 51.0899 51.1696 52.1093 51.1696 53.161C51.1696 54.2126 51.5329 55.232 52.1981 56.0465C52.8633 56.8611 53.7895 57.4208 54.82 57.631V59.15L33.026 59.148ZM57.826 55.721H55.731C55.0601 55.7077 54.4212 55.4319 53.9515 54.9528C53.4818 54.4737 53.2186 53.8294 53.2186 53.1585C53.2186 52.4875 53.4818 51.8432 53.9515 51.3641C54.4212 50.885 55.0601 50.6092 55.731 50.596H57.824C58.1877 52.2859 58.1877 54.034 57.824 55.724L57.826 55.721ZM19.946 51.262C19.946 51.4597 19.8874 51.6531 19.7775 51.8175C19.6676 51.982 19.5114 52.1101 19.3287 52.1858C19.146 52.2615 18.9449 52.2813 18.7509 52.2427C18.5569 52.2042 18.3787 52.1089 18.2389 51.9691C18.099 51.8292 18.0038 51.651 17.9652 51.457C17.9266 51.2631 17.9464 51.062 18.0221 50.8793C18.0978 50.6965 18.226 50.5404 18.3904 50.4305C18.5549 50.3206 18.7482 50.262 18.946 50.262C19.2112 50.262 19.4656 50.3673 19.6531 50.5548C19.8406 50.7424 19.946 50.9967 19.946 51.262ZM46.055 55.767C46.055 55.9647 45.9964 56.1581 45.8865 56.3225C45.7766 56.487 45.6204 56.6151 45.4377 56.6908C45.255 56.7665 45.0539 56.7863 44.8599 56.7477C44.6659 56.7092 44.4877 56.6139 44.3479 56.4741C44.208 56.3342 44.1128 56.156 44.0742 55.962C44.0356 55.7681 44.0554 55.567 44.1311 55.3843C44.2068 55.2015 44.335 55.0454 44.4994 54.9355C44.6639 54.8256 44.8572 54.767 45.055 54.767C45.1863 54.7671 45.3163 54.7931 45.4376 54.8435C45.5589 54.8938 45.669 54.9676 45.7618 55.0606C45.8546 55.1535 45.9281 55.2638 45.9783 55.3852C46.0284 55.5066 46.0541 55.6366 46.054 55.768L46.055 55.767Z" fill="#CA9841"/>
</svg>
