<svg width="64" height="64" viewBox="0 0 64 64" fill="none" xmlns="http://www.w3.org/2000/svg">
<circle cx="32" cy="32" r="32" fill="#F5ECDB"/>
<g clip-path="url(#clip0_349_79)">
<path d="M32 16C25.384 16 20 21.4213 20 28.0867C20 37.5573 30.872 47.336 31.3347 47.7467C31.5175 47.9104 31.7543 48.001 31.9997 48.0012C32.2452 48.0015 32.4821 47.9113 32.6653 47.748C33.128 47.336 44 37.5573 44 28.0867C44 21.4213 38.616 16 32 16ZM32 34.6667C28.324 34.6667 25.3333 31.676 25.3333 28C25.3333 24.324 28.324 21.3333 32 21.3333C35.676 21.3333 38.6667 24.324 38.6667 28C38.6667 31.676 35.676 34.6667 32 34.6667Z" fill="#CA9841"/>
</g>
<defs>
<clipPath id="clip0_349_79">
<rect width="32" height="32" fill="white" transform="translate(16 16)"/>
</clipPath>
</defs>
</svg>
