<svg width="12" height="12" viewBox="0 0 12 12" fill="none" xmlns="http://www.w3.org/2000/svg">
<path d="M11.28 6.72008H0.720071C0.625502 6.72008 0.531859 6.70145 0.44449 6.66526C0.35712 6.62907 0.277736 6.57602 0.210871 6.50914C0.144005 6.44227 0.0909666 6.36288 0.0547855 6.2755C0.0186045 6.18813 -1.0973e-05 6.09448 1.96573e-06 5.99992C-1.0975e-05 5.90535 0.0186055 5.81171 0.0547878 5.72434C0.0909701 5.63697 0.144009 5.55759 0.210877 5.49072C0.277744 5.42385 0.357128 5.37081 0.444497 5.33463C0.531866 5.29845 0.625506 5.27983 0.720071 5.27985H11.28C11.4696 5.28206 11.6506 5.35891 11.7838 5.49372C11.9171 5.62852 11.9918 5.81042 11.9918 5.99996C11.9918 6.18951 11.9171 6.37141 11.7838 6.50621C11.6506 6.64102 11.4696 6.71787 11.28 6.72008Z" fill="#CA9841"/>
</svg>
