<svg width="32" height="32" viewBox="0 0 32 32" fill="none" xmlns="http://www.w3.org/2000/svg">
<g clip-path="url(#clip0_6_12)">
<path d="M15.6433 8.04796C15.3719 7.77635 14.9316 7.77635 14.6597 8.04796C14.3881 8.31939 14.3881 8.75995 14.6597 9.03161L19.9276 14.2994H5.93109C5.54581 14.2994 5.23331 14.6119 5.23331 14.9972C5.23331 15.3826 5.54581 15.6949 5.93109 15.6949H19.9206L14.6527 20.9628C14.588 21.0273 14.5367 21.104 14.5017 21.1884C14.4667 21.2728 14.4486 21.3633 14.4486 21.4547C14.4486 21.5461 14.4667 21.6366 14.5017 21.721C14.5367 21.8054 14.588 21.882 14.6527 21.9466C14.7175 22.0118 14.7948 22.0634 14.8799 22.0981C14.965 22.1329 15.0562 22.1502 15.1481 22.1489C15.3332 22.1481 15.5107 22.0756 15.6433 21.9466L22.0973 15.4928C22.1624 15.4278 22.2138 15.3505 22.2485 15.2654C22.2833 15.1803 22.3008 15.0891 22.2999 14.9972C22.2986 14.8122 22.226 14.6349 22.0974 14.502L15.6433 8.04796Z" fill="#68492A"/>
<path d="M15.0015 -0.00388959C8.93413 -0.00500845 3.46367 3.64965 1.1418 9.25538C-1.17962 14.8612 0.104446 21.3135 4.39613 25.6025C10.2535 31.46 19.7499 31.46 25.6071 25.6025C31.4643 19.7455 31.4643 10.2492 25.6071 4.39173C24.2176 2.99437 22.5649 1.88639 20.7445 1.13189C18.924 0.377396 16.9721 -0.00864284 15.0015 -0.00388959ZM15.0015 28.6029C7.50097 28.6029 1.39595 22.4977 1.39595 14.9972C1.39595 7.49664 7.50097 1.39161 15.0015 1.39161C22.502 1.39161 28.6073 7.49664 28.6073 14.9972C28.6073 22.4977 22.502 28.6029 15.0015 28.6029Z" fill="#68492A"/>
</g>
<defs>
<clipPath id="clip0_6_12">
<rect width="32" height="32" fill="white"/>
</clipPath>
</defs>
</svg>
