<svg width="32" height="32" viewBox="0 0 32 32" fill="none" xmlns="http://www.w3.org/2000/svg">
<circle cx="16" cy="16" r="16" fill="#CA9841" fill-opacity="0.19"/>
<g clip-path="url(#clip0_12_149)">
<path d="M15.8404 16.5066C15.9656 16.5893 16.1123 16.6335 16.2623 16.6335C16.5123 16.6335 16.7573 16.5121 16.9041 16.2878C17.1375 15.9334 17.0397 15.4571 16.6853 15.2238C15.0526 14.1489 14.1819 12.9583 13.9456 11.4782C13.8366 10.7827 13.9814 9.72688 14.5588 9.05219C14.9332 8.615 15.427 8.40201 16.0688 8.40201C17.3276 8.40201 17.8426 9.29598 18.0377 9.82841C18.509 11.113 18.12 12.7121 17.1341 13.5469C16.8101 13.8215 16.7702 14.3061 17.0439 14.6293C17.3184 14.9538 17.8026 14.9937 18.1263 14.7196C19.6034 13.4692 20.1725 11.1899 19.4799 9.3001C18.9216 7.77634 17.6462 6.86658 16.0688 6.86658C14.9822 6.86658 14.0562 7.27714 13.391 8.05379C12.4322 9.1757 12.2729 10.7278 12.4284 11.7182C12.8353 14.2645 14.5708 15.6705 15.8404 16.5066Z" fill="#CA9841"/>
<path d="M21.8893 23.598H10.9218C10.9497 20.1582 11.1622 19.1365 11.2575 18.8511C11.4672 18.2234 12.3286 17.5778 13.0828 17.156C13.7642 18.2293 14.8462 18.8691 16.0488 18.8691H16.0493C17.2382 18.8686 18.311 18.2293 18.9891 17.1564C19.7433 17.5783 20.6035 18.2239 20.8128 18.8508C21.0832 19.6632 21.0678 20.8055 21.0553 21.7232C21.0528 21.9116 21.0503 22.0913 21.0503 22.2581C21.0503 22.6824 21.3939 23.0261 21.8182 23.0261C22.2425 23.0261 22.5861 22.6824 22.5861 22.2581C22.5861 22.098 22.5886 21.9253 22.5911 21.744C22.6057 20.7102 22.6235 19.424 22.27 18.3645C21.6901 16.6265 19.2295 15.5433 18.9508 15.4255C18.8568 15.3855 18.7557 15.3648 18.6536 15.3645C18.5514 15.3642 18.4502 15.3844 18.3559 15.4239C18.2618 15.4633 18.1764 15.5211 18.1047 15.5939C18.0331 15.6666 17.9767 15.7529 17.9387 15.8477C17.5668 16.7775 16.8605 17.3328 16.0493 17.3328H16.0489C15.2336 17.3328 14.4998 16.7637 14.1328 15.8477C14.0949 15.7529 14.0385 15.6666 13.9668 15.5939C13.8952 15.5211 13.8098 15.4633 13.7156 15.4239C13.6214 15.3845 13.5202 15.3644 13.418 15.3646C13.3159 15.3649 13.2148 15.3856 13.1208 15.4255C12.8425 15.5433 10.3815 16.6261 9.80076 18.3649C9.52369 19.1969 9.38354 21.2161 9.38354 24.3656C9.38354 24.7899 9.72717 25.1335 10.1515 25.1335H21.8898C22.3137 25.1335 22.6573 24.7903 22.6573 24.366C22.6572 23.9416 22.3136 23.598 21.8893 23.598ZM8.77283 16.28C7.70749 16.28 6.84099 15.1651 6.84099 13.7952C6.84099 12.4266 7.70749 11.3131 8.77283 11.3131C9.3182 11.3131 9.85856 11.6284 10.183 12.1355C10.4205 12.5069 10.7421 13.2969 10.2263 14.4147C10.0486 14.7999 10.2167 15.2558 10.6019 15.4338C10.9875 15.6111 11.4431 15.4434 11.6207 15.0582C12.2213 13.7566 12.1685 12.3901 11.4759 11.3077C10.8628 10.3497 9.85232 9.77769 8.77241 9.77769C6.86054 9.77769 5.30514 11.5797 5.30514 13.7953C5.30514 16.0121 6.86054 17.8154 8.77241 17.8154C9.1967 17.8154 9.54075 17.4722 9.54075 17.0479C9.54071 16.6235 9.19713 16.28 8.77283 16.28ZM7.80232 22.8671H5.5643C5.59843 22.1067 5.66747 20.9761 5.79267 20.3113C5.9549 19.4435 6.42166 18.9539 6.78479 18.696C7.13132 18.4506 7.21242 17.9713 6.96656 17.6256C6.72114 17.2791 6.24232 17.1976 5.89621 17.4439C5.40953 17.7891 4.55259 18.5845 4.28344 20.028C4.06046 21.2123 4.00267 23.5186 4.00014 23.6159C3.99781 23.7182 4.01593 23.82 4.05343 23.9153C4.09092 24.0106 4.14705 24.0975 4.21852 24.1708C4.29006 24.2441 4.37554 24.3023 4.46992 24.342C4.5643 24.3817 4.66567 24.4021 4.76806 24.4021H7.80227C8.22657 24.4021 8.5702 24.0593 8.5702 23.635C8.57024 23.2107 8.22661 22.8671 7.80232 22.8671ZM26.6957 13.7944C26.6957 11.5788 25.1403 9.77679 23.2284 9.77679C22.148 9.77679 21.1372 10.3484 20.5236 11.3064C19.831 12.3883 19.7778 13.7553 20.3776 15.0569C20.5553 15.4417 21.0116 15.6106 21.3964 15.433C21.7812 15.2554 21.9501 14.7994 21.7724 14.4142C21.2566 13.296 21.579 12.5065 21.8166 12.135C22.1414 11.6279 22.6818 11.3126 23.228 11.3126C24.2933 11.3126 25.1598 12.4262 25.1598 13.7948C25.1598 15.1646 24.2933 16.2795 23.228 16.2795C22.8037 16.2795 22.4601 16.6231 22.4601 17.0474C22.4601 17.4717 22.8037 17.8153 23.228 17.8153C25.1394 17.8153 26.6952 16.012 26.6957 13.7944ZM27.7165 20.0296C27.4577 18.6332 26.644 17.8461 26.1823 17.5017C25.8424 17.2487 25.3611 17.3178 25.1074 17.6577C24.854 17.9975 24.9239 18.4793 25.2634 18.7326C25.6082 18.9897 26.0513 19.4714 26.2069 20.312C26.3321 20.976 26.4011 22.1062 26.4352 22.8662H24.1968C23.7725 22.8662 23.4289 23.2099 23.4289 23.6342C23.4289 24.0584 23.7725 24.4021 24.1968 24.4021H27.2318C27.4386 24.4021 27.6366 24.3189 27.7818 24.1704C27.8531 24.097 27.9092 24.0101 27.9466 23.9149C27.984 23.8196 28.0021 23.7178 27.9997 23.6154C27.9973 23.5181 27.9399 21.2115 27.7165 20.0296Z" fill="#CA9841"/>
</g>
<defs>
<clipPath id="clip0_12_149">
<rect width="24" height="24" fill="white" transform="translate(4 4)"/>
</clipPath>
</defs>
</svg>
