<svg width="64" height="64" viewBox="0 0 64 64" fill="none" xmlns="http://www.w3.org/2000/svg">
<circle cx="32" cy="32" r="32" fill="#F5ECDB"/>
<g clip-path="url(#clip0_349_77)">
<path d="M43.3125 32.7595H40.1801C39.7538 32.7595 39.3411 32.8178 38.9482 32.9249C38.1734 31.4016 36.5914 30.355 34.7684 30.355H29.2316C27.4086 30.355 25.8266 31.4016 25.0518 32.9249C24.6503 32.8152 24.236 32.7596 23.8199 32.7595H20.6875C18.1028 32.7595 16 34.8623 16 37.447V42.4544C16 44.0052 17.2617 45.2669 18.8125 45.2669H45.1875C46.7383 45.2669 48 44.0052 48 42.4544V37.447C48 34.8623 45.8972 32.7595 43.3125 32.7595ZM24.5441 35.0426V43.3919H18.8125C18.2956 43.3919 17.875 42.9714 17.875 42.4544V37.4471C17.875 35.8963 19.1367 34.6346 20.6875 34.6346H23.8199C24.0744 34.6346 24.3208 34.6691 24.5554 34.7328C24.5482 34.8359 24.5445 34.9393 24.5441 35.0426ZM37.5809 43.3919H26.4191V35.0426C26.4191 33.4918 27.6807 32.2301 29.2316 32.2301H34.7684C36.3193 32.2301 37.5809 33.4918 37.5809 35.0426V43.3919ZM46.125 42.4544C46.125 42.9714 45.7044 43.3919 45.1875 43.3919H39.4559V35.0426C39.4555 34.9392 39.4518 34.8359 39.4446 34.7328C39.6843 34.6676 39.9317 34.6346 40.1801 34.6345H43.3125C44.8633 34.6345 46.125 35.8962 46.125 37.447V42.4544Z" fill="#CA9841"/>
<path d="M22.2538 23.9065C19.9569 23.9065 18.0884 25.7751 18.0884 28.0719C18.0883 30.3687 19.9569 32.2372 22.2538 32.2372C24.5505 32.2372 26.4191 30.3687 26.4191 28.0719C26.4191 25.7751 24.5506 23.9065 22.2538 23.9065ZM22.2537 30.3623C20.9908 30.3623 19.9633 29.3348 19.9633 28.0719C19.9633 26.8089 20.9908 25.7815 22.2537 25.7815C23.5166 25.7815 24.5441 26.8089 24.5441 28.0719C24.5441 29.3348 23.5166 30.3623 22.2537 30.3623ZM32 18.7331C28.9315 18.7331 26.4351 21.2294 26.4351 24.2979C26.4351 27.3664 28.9315 29.8628 32 29.8628C35.0685 29.8628 37.5649 27.3664 37.5649 24.2979C37.5649 21.2295 35.0685 18.7331 32 18.7331ZM32 27.9878C29.9654 27.9878 28.3101 26.3326 28.3101 24.2979C28.3101 22.2634 29.9654 20.6081 32 20.6081C34.0346 20.6081 35.6899 22.2633 35.6899 24.2979C35.6899 26.3326 34.0346 27.9878 32 27.9878ZM41.7463 23.9065C39.4495 23.9065 37.5809 25.7751 37.5809 28.0719C37.5809 30.3687 39.4495 32.2372 41.7463 32.2372C44.0431 32.2372 45.9116 30.3687 45.9116 28.0719C45.9116 25.7751 44.0431 23.9065 41.7463 23.9065ZM41.7463 30.3623C40.4834 30.3623 39.4559 29.3348 39.4559 28.0719C39.4559 26.8089 40.4834 25.7815 41.7463 25.7815C43.0092 25.7815 44.0366 26.8089 44.0366 28.0719C44.0366 29.3348 43.0092 30.3623 41.7463 30.3623Z" fill="#CA9841"/>
</g>
<defs>
<clipPath id="clip0_349_77">
<rect width="32" height="32" fill="white" transform="translate(16 16)"/>
</clipPath>
</defs>
</svg>
