<svg width="12" height="12" viewBox="0 0 12 12" fill="none" xmlns="http://www.w3.org/2000/svg">
<g clip-path="url(#clip0_12_121)">
<path d="M11.4 5.4H6.60003V0.599962C6.60003 0.268847 6.33119 0 5.99996 0C5.66884 0 5.4 0.268847 5.4 0.599962V5.4H0.599962C0.268847 5.4 0 5.66884 0 5.99996C0 6.33119 0.268847 6.60003 0.599962 6.60003H5.4V11.4C5.4 11.7312 5.66884 12 5.99996 12C6.33119 12 6.60003 11.7312 6.60003 11.4V6.60003H11.4C11.7312 6.60003 12 6.33119 12 5.99996C12 5.66884 11.7312 5.4 11.4 5.4Z" fill="#CA9841"/>
</g>
<defs>
<clipPath id="clip0_12_121">
<rect width="12" height="12" fill="white"/>
</clipPath>
</defs>
</svg>
