<svg width="32" height="32" viewBox="0 0 32 32" fill="none" xmlns="http://www.w3.org/2000/svg">
<g clip-path="url(#clip0_6_17)">
<path d="M16.3567 8.04796C16.6281 7.77635 17.0684 7.77635 17.3403 8.04796C17.6119 8.31939 17.6119 8.75995 17.3403 9.03161L12.0724 14.2994H26.0689C26.4542 14.2994 26.7667 14.6119 26.7667 14.9972C26.7667 15.3826 26.4542 15.6949 26.0689 15.6949H12.0794L17.3472 20.9628C17.4119 21.0273 17.4633 21.104 17.4983 21.1884C17.5333 21.2728 17.5514 21.3633 17.5514 21.4547C17.5514 21.5461 17.5333 21.6366 17.4983 21.721C17.4633 21.8054 17.4119 21.882 17.3472 21.9466C17.2825 22.0118 17.2052 22.0634 17.1201 22.0981C17.035 22.1329 16.9438 22.1502 16.8519 22.1489C16.6668 22.1481 16.4893 22.0756 16.3567 21.9466L9.90266 15.4928C9.83764 15.4278 9.78623 15.3505 9.75145 15.2654C9.71667 15.1803 9.69921 15.0891 9.70009 14.9972C9.70142 14.8122 9.77394 14.6349 9.90261 14.502L16.3567 8.04796Z" fill="#68492A"/>
<path d="M16.9985 -0.00388959C23.0659 -0.00500845 28.5363 3.64965 30.8582 9.25538C33.1796 14.8612 31.8956 21.3135 27.6039 25.6025C21.7465 31.46 12.2501 31.46 6.3929 25.6025C0.53565 19.7455 0.53565 10.2492 6.3929 4.39173C7.78236 2.99437 9.4351 1.88639 11.2555 1.13189C13.076 0.377396 15.0279 -0.00864284 16.9985 -0.00388959ZM16.9985 28.6029C24.499 28.6029 30.604 22.4977 30.604 14.9972C30.604 7.49664 24.499 1.39161 16.9985 1.39161C9.49797 1.39161 3.39272 7.49664 3.39272 14.9972C3.39272 22.4977 9.49797 28.6029 16.9985 28.6029Z" fill="#68492A"/>
</g>
<defs>
<clipPath id="clip0_6_17">
<rect width="32" height="32" fill="white" transform="matrix(-1 0 0 1 32 0)"/>
</clipPath>
</defs>
</svg>
