<svg width="32" height="32" viewBox="0 0 32 32" fill="none" xmlns="http://www.w3.org/2000/svg">
<circle cx="16" cy="16" r="16" fill="#CA9841" fill-opacity="0.19"/>
<g clip-path="url(#clip0_12_342)">
<path d="M16 6C10.4876 6 6 10.4876 6 16C6 21.5124 10.4876 26 16 26C21.5124 26 26 21.5124 26 16C26 10.4876 21.5124 6 16 6ZM16 23.9298C11.6281 23.9298 8.07025 20.3719 8.07025 16C8.07025 11.6281 11.6281 8.07025 16 8.07025C20.3719 8.07025 23.9298 11.6281 23.9298 16C23.9298 20.3719 20.3719 23.9298 16 23.9298Z" fill="#CA9841"/>
<path d="M17.7066 15.4381C17.2231 15.1695 16.7107 14.9711 16.2025 14.7604C15.9091 14.6405 15.6281 14.4959 15.3802 14.2976C14.8926 13.905 14.9835 13.2728 15.5578 13.0207C15.719 12.9504 15.8884 12.9257 16.062 12.9174C16.7273 12.8802 17.3554 13.0042 17.9587 13.2934C18.2562 13.4381 18.3554 13.3926 18.4587 13.0827C18.5661 12.7521 18.657 12.4174 18.7521 12.0868C18.8182 11.8637 18.7355 11.7149 18.5248 11.624C18.1405 11.4546 17.7438 11.3306 17.3264 11.2686C16.7851 11.1819 16.7851 11.1819 16.781 10.6364C16.7769 9.86367 16.7769 9.86367 16.0083 9.8678C15.8967 9.8678 15.7851 9.86367 15.6736 9.8678C15.314 9.8802 15.2521 9.94218 15.2438 10.3017C15.2397 10.4628 15.2438 10.6281 15.2438 10.7893C15.2397 11.2728 15.2397 11.2645 14.7769 11.4298C13.6612 11.8347 12.9711 12.5951 12.8967 13.8141C12.8306 14.8926 13.3926 15.6199 14.2769 16.1488C14.8223 16.4752 15.4256 16.6695 16.0041 16.9257C16.2314 17.0248 16.4463 17.1405 16.6322 17.2976C17.1901 17.7562 17.0868 18.5207 16.4256 18.81C16.0702 18.9628 15.6983 19.0042 15.3182 18.9546C14.7273 18.8802 14.1612 18.7273 13.6322 18.4504C13.3223 18.2893 13.2314 18.3306 13.124 18.6695C13.0331 18.9628 12.9504 19.2562 12.8719 19.5496C12.7645 19.9463 12.8017 20.0414 13.1818 20.2232C13.6612 20.4546 14.1777 20.5744 14.7025 20.6612C15.1116 20.7273 15.1281 20.7438 15.1322 21.1695C15.1322 21.3637 15.1364 21.5579 15.1364 21.748C15.1405 21.9918 15.2562 22.1323 15.5083 22.1364C15.7934 22.1405 16.0785 22.1405 16.3636 22.1364C16.595 22.1323 16.7149 22.0042 16.719 21.7686C16.719 21.5042 16.7314 21.2397 16.7231 20.9752C16.7107 20.7066 16.8264 20.5703 17.0868 20.5C17.6818 20.3389 18.1901 20.0166 18.5826 19.5414C19.657 18.219 19.2438 16.2893 17.7066 15.4381Z" fill="#CA9841"/>
</g>
<defs>
<clipPath id="clip0_12_342">
<rect width="20" height="20" fill="white" transform="translate(6 6)"/>
</clipPath>
</defs>
</svg>
