<svg width="36" height="36" viewBox="0 0 36 36" fill="none" xmlns="http://www.w3.org/2000/svg">
<path d="M30.675 29.6137L24.8153 23.7547C26.6172 21.7117 27.6096 19.0801 27.6053 16.356C27.6053 13.3507 26.4353 10.5255 24.3105 8.40074C22.1858 6.27599 19.3605 5.10599 16.356 5.10599C13.3515 5.10599 10.5255 6.27599 8.40001 8.39999C6.2745 10.524 5.10526 13.35 5.10526 16.3552C5.10526 19.3605 6.27525 22.185 8.40001 24.3097C10.5248 26.4345 13.35 27.6052 16.3553 27.6052C19.1078 27.6052 21.7028 26.613 23.754 24.8145L29.613 30.6735C29.6825 30.7434 29.7651 30.7988 29.8561 30.8367C29.9471 30.8745 30.0447 30.894 30.1433 30.894C30.2418 30.894 30.3394 30.8745 30.4304 30.8367C30.5214 30.7988 30.604 30.7434 30.6735 30.6735C30.8141 30.5328 30.8931 30.3421 30.8931 30.1432C30.8931 29.9444 30.8141 29.7536 30.6735 29.613L30.675 29.6137ZM9.46051 23.25C7.61926 21.408 6.60526 18.96 6.60526 16.356C6.60526 13.752 7.61926 11.3032 9.46051 9.46124C11.3025 7.61999 13.7505 6.60599 16.3553 6.60599C18.96 6.60599 21.408 7.61999 23.25 9.46124C25.0913 11.3032 26.106 13.7512 26.106 16.356C26.106 18.9607 25.0913 21.408 23.25 23.25C21.408 25.0912 18.96 26.106 16.356 26.106C13.752 26.106 11.3018 25.0912 9.46051 23.25Z" fill="#2D2D2F"/>
</svg>
