<svg width="64" height="64" viewBox="0 0 64 64" fill="none" xmlns="http://www.w3.org/2000/svg">
<circle cx="32" cy="32" r="32" fill="#F5ECDB"/>
<g clip-path="url(#clip0_506_2)">
<path d="M44.2917 31.375H46.75C47.4404 31.375 48 31.9346 48 32.625C48 33.3154 47.4404 33.875 46.75 33.875H44.2917C43.6013 33.875 43.0417 33.3154 43.0417 32.625C43.0417 31.9346 43.6013 31.375 44.2917 31.375ZM17.25 33.875H19.7083C20.3987 33.875 20.9583 33.3154 20.9583 32.625C20.9583 31.9346 20.3987 31.375 19.7083 31.375H17.25C16.5596 31.375 16 31.9346 16 32.625C16 33.3154 16.5596 33.875 17.25 33.875ZM32 21.5833C32.6904 21.5833 33.25 21.0237 33.25 20.3333V17.875C33.25 17.1846 32.6904 16.625 32 16.625C31.3096 16.625 30.75 17.1846 30.75 17.875V20.3333C30.75 21.0237 31.3096 21.5833 32 21.5833ZM22.4246 24.8174C22.9126 25.3054 23.7042 25.3056 24.1924 24.8174C24.6806 24.3292 24.6806 23.5377 24.1924 23.0496L22.4541 21.3113C21.9659 20.8231 21.1744 20.8231 20.6863 21.3113C20.1982 21.7994 20.1981 22.5909 20.6863 23.0791L22.4246 24.8174ZM41.5754 24.8174L43.3137 23.0791C43.8019 22.5909 43.8019 21.7994 43.3137 21.3113C42.8256 20.8231 42.0341 20.8231 41.5459 21.3113L39.8076 23.0496C39.3194 23.5377 39.3194 24.3293 39.8076 24.8174C40.2957 25.3054 41.0873 25.3056 41.5754 24.8174ZM48 40C48 40.6904 47.4404 41.25 46.75 41.25H17.25C16.5596 41.25 16 40.6904 16 40C16 39.3096 16.5596 38.75 17.25 38.75H25.9189C24.3423 37.1846 23.3646 35.0169 23.3646 32.625C23.3646 27.8634 27.2384 23.9896 32 23.9896C36.7616 23.9896 40.6354 27.8634 40.6354 32.625C40.6354 35.0169 39.6577 37.1846 38.0811 38.75H46.75C47.4404 38.75 48 39.3096 48 40ZM31.6464 38.75H32.3536C35.5728 38.5662 38.1355 35.8894 38.1355 32.625C38.1355 29.2419 35.3832 26.4896 32.0001 26.4896C28.6169 26.4896 25.8646 29.2419 25.8646 32.625C25.8646 35.8894 28.4273 38.5662 31.6464 38.75ZM41.8333 44.875H22.1667C21.4763 44.875 20.9167 45.4346 20.9167 46.125C20.9167 46.8154 21.4763 47.375 22.1667 47.375H41.8333C42.5237 47.375 43.0833 46.8154 43.0833 46.125C43.0833 45.4346 42.5237 44.875 41.8333 44.875Z" fill="#CA9841"/>
</g>
<defs>
<clipPath id="clip0_506_2">
<rect width="32" height="32" fill="white" transform="translate(16 16)"/>
</clipPath>
</defs>
</svg>
