<svg width="18" height="18" viewBox="0 0 18 18" fill="none" xmlns="http://www.w3.org/2000/svg">
<path d="M1.6875 13.2188H2.25V14.9062H1.6875V13.2188ZM2.8125 13.2188H3.375V13.7812H2.8125V13.2188ZM2.8125 14.3438H3.375V14.9062H2.8125V14.3438ZM6.9068 6.40037C7.47046 6.62583 8.21384 6.75 9 6.75C9.78616 6.75 10.5295 6.62583 11.0932 6.40037C11.7384 6.14229 12.0938 5.76707 12.0938 5.34375C12.0938 4.92043 11.7384 4.54521 11.0932 4.28713C10.5295 4.06167 9.78616 3.9375 9 3.9375C8.21384 3.9375 7.47046 4.06167 6.9068 4.28713C6.26157 4.54521 5.90625 4.92043 5.90625 5.34375C5.90625 5.76707 6.26157 6.14229 6.9068 6.40037ZM9 4.5C10.5452 4.5 11.5312 4.99971 11.5312 5.34375C11.5312 5.68779 10.5452 6.1875 9 6.1875C7.45481 6.1875 6.46875 5.68779 6.46875 5.34375C6.46875 4.99971 7.45481 4.5 9 4.5Z" fill="#68492A"/>
<path d="M15.1875 8.15625H14.9062V5.34375C14.9062 4.41014 14.2694 3.54572 13.113 2.90971C12.0098 2.30291 10.5491 1.96875 9 1.96875C7.45095 1.96875 5.99024 2.30273 4.887 2.90971C3.73061 3.54572 3.09375 4.41014 3.09375 5.34375V9.28125C3.09375 10.2149 3.73061 11.0793 4.887 11.7153C5.15297 11.8605 5.42876 11.987 5.71236 12.0938H0.84375C0.769158 12.0938 0.697621 12.1234 0.644876 12.1761C0.592132 12.2289 0.5625 12.3004 0.5625 12.375V15.75C0.5625 15.8246 0.592132 15.8961 0.644876 15.9489C0.697621 16.0016 0.769158 16.0312 0.84375 16.0312H15.1875C15.784 16.0306 16.3559 15.7933 16.7778 15.3715C17.1996 14.9497 17.4368 14.3778 17.4375 13.7812V10.4062C17.4368 9.80972 17.1996 9.23781 16.7778 8.816C16.3559 8.39419 15.784 8.15692 15.1875 8.15625ZM3.9375 15.4688H1.125V12.6562H3.9375V15.4688ZM14.3438 8.15625H12.2876C12.5712 8.04948 12.847 7.92302 13.113 7.77779C13.6312 7.49278 14.0446 7.16175 14.3438 6.79932V8.15625ZM5.15809 3.40256C6.17966 2.84062 7.54411 2.53125 9 2.53125C10.4559 2.53125 11.8203 2.84062 12.8419 3.40256C13.8104 3.93525 14.3438 4.62459 14.3438 5.34375C14.3438 6.06291 13.8104 6.75225 12.8419 7.28494C11.8203 7.84688 10.4559 8.15625 9 8.15625C7.54411 8.15625 6.17966 7.84688 5.15809 7.28494C4.18961 6.75225 3.65625 6.06291 3.65625 5.34375C3.65625 4.62459 4.18961 3.93525 5.15809 3.40256ZM5.15809 11.2224C4.18961 10.6897 3.65625 10.0004 3.65625 9.28125V6.79922C3.95508 7.16164 4.36876 7.49268 4.887 7.77769C5.03311 7.85805 5.18536 7.93355 5.34375 8.00416V9.28125H5.90625V8.22695C6.18297 8.32279 6.46463 8.40377 6.75 8.46953V9.28125H7.3125V8.58164C7.59215 8.62816 7.87365 8.6627 8.15625 8.68518V10.4062H8.71875V8.71502C8.81213 8.71737 8.90588 8.71861 9 8.71875H9.5625V9.28125H10.125V8.71875H10.9688V9.28125H11.5312V8.71875H12.375V10.4062H12.9375V8.71875H13.7812V9.28125H14.3438V8.71875H15.1875V9.28125H15.75V8.8155C16.1251 8.94831 16.4413 9.20943 16.6426 9.55272C16.8438 9.89602 16.9173 10.2994 16.85 10.6916C16.7827 11.0839 16.579 11.4397 16.2748 11.6962C15.9705 11.9528 15.5855 12.0936 15.1875 12.0938H9C7.54411 12.0938 6.17966 11.7844 5.15809 11.2224ZM16.875 13.7812C16.8745 14.2286 16.6965 14.6576 16.3802 14.9739C16.0638 15.2903 15.6349 15.4682 15.1875 15.4688H4.5V12.6562H5.34375V13.2188H5.90625V12.6562H6.75V13.2188H7.3125V12.6562H8.15625V14.3438H8.71875V12.6562H9.5625V13.2188H10.125V12.6562H10.9688V13.2188H11.5312V12.6562H12.375V14.3438H12.9375V12.6562H13.7812V13.2188H14.3438V12.6562H15.1875V13.2188H15.75V12.5851C16.1858 12.4717 16.5777 12.2303 16.875 11.8921V13.7812Z" fill="#68492A"/>
</svg>
