<svg width="40" height="40" viewBox="0 0 40 40" fill="none" xmlns="http://www.w3.org/2000/svg">
<circle cx="20" cy="20" r="20" fill="#F5ECDB"/>
<path d="M10.25 25.625H11V27.875H10.25V25.625ZM11.75 25.625H12.5V26.375H11.75V25.625ZM11.75 27.125H12.5V27.875H11.75V27.125ZM17.2091 16.5338C17.9606 16.8344 18.9518 17 20 17C21.0482 17 22.0394 16.8344 22.7909 16.5338C23.6512 16.1897 24.125 15.6894 24.125 15.125C24.125 14.5606 23.6512 14.0603 22.7909 13.7162C22.0394 13.4156 21.0482 13.25 20 13.25C18.9518 13.25 17.9606 13.4156 17.2091 13.7162C16.3488 14.0603 15.875 14.5606 15.875 15.125C15.875 15.6894 16.3488 16.1897 17.2091 16.5338ZM20 14C22.0603 14 23.375 14.6663 23.375 15.125C23.375 15.5837 22.0603 16.25 20 16.25C17.9398 16.25 16.625 15.5837 16.625 15.125C16.625 14.6663 17.9398 14 20 14Z" fill="#CA9841"/>
<path d="M28.25 18.875H27.875V15.125C27.875 13.8802 27.0259 12.7276 25.484 11.8796C24.013 11.0705 22.0654 10.625 20 10.625C17.9346 10.625 15.987 11.0703 14.516 11.8796C12.9741 12.7276 12.125 13.8802 12.125 15.125V20.375C12.125 21.6198 12.9741 22.7724 14.516 23.6204C14.8706 23.814 15.2383 23.9826 15.6165 24.125H9.125C9.02554 24.125 8.93016 24.1645 8.85983 24.2348C8.78951 24.3052 8.75 24.4005 8.75 24.5V29C8.75 29.0995 8.78951 29.1948 8.85983 29.2652C8.93016 29.3355 9.02554 29.375 9.125 29.375H28.25C29.0454 29.3741 29.8079 29.0578 30.3703 28.4953C30.9328 27.9329 31.2491 27.1704 31.25 26.375V21.875C31.2491 21.0796 30.9328 20.3171 30.3703 19.7547C29.8079 19.1923 29.0454 18.8759 28.25 18.875ZM13.25 28.625H9.5V24.875H13.25V28.625ZM27.125 18.875H24.3835C24.7617 18.7326 25.1294 18.564 25.484 18.3704C26.175 17.9904 26.7262 17.549 27.125 17.0658V18.875ZM14.8775 12.5367C16.2395 11.7875 18.0588 11.375 20 11.375C21.9412 11.375 23.7605 11.7875 25.1225 12.5367C26.4139 13.247 27.125 14.1661 27.125 15.125C27.125 16.0839 26.4139 17.003 25.1225 17.7133C23.7605 18.4625 21.9412 18.875 20 18.875C18.0588 18.875 16.2395 18.4625 14.8775 17.7133C13.5861 17.003 12.875 16.0839 12.875 15.125C12.875 14.1661 13.5861 13.247 14.8775 12.5367ZM14.8775 22.9633C13.5861 22.253 12.875 21.3338 12.875 20.375V17.0656C13.2734 17.5489 13.825 17.9902 14.516 18.3702C14.7108 18.4774 14.9138 18.5781 15.125 18.6722V20.375H15.875V18.9693C16.244 19.0971 16.6195 19.205 17 19.2927V20.375H17.75V19.4422C18.1229 19.5042 18.4982 19.5503 18.875 19.5802V21.875H19.625V19.62C19.7495 19.6232 19.8745 19.6248 20 19.625H20.75V20.375H21.5V19.625H22.625V20.375H23.375V19.625H24.5V21.875H25.25V19.625H26.375V20.375H27.125V19.625H28.25V20.375H29V19.754C29.5002 19.9311 29.9217 20.2792 30.1901 20.737C30.4584 21.1947 30.5564 21.7325 30.4667 22.2555C30.377 22.7785 30.1053 23.2529 29.6997 23.595C29.2941 23.9371 28.7806 24.1248 28.25 24.125H20C18.0588 24.125 16.2395 23.7125 14.8775 22.9633ZM30.5 26.375C30.4993 26.9715 30.262 27.5434 29.8402 27.9652C29.4184 28.387 28.8465 28.6243 28.25 28.625H14V24.875H15.125V25.625H15.875V24.875H17V25.625H17.75V24.875H18.875V27.125H19.625V24.875H20.75V25.625H21.5V24.875H22.625V25.625H23.375V24.875H24.5V27.125H25.25V24.875H26.375V25.625H27.125V24.875H28.25V25.625H29V24.7801C29.5811 24.629 30.1036 24.3071 30.5 23.8561V26.375Z" fill="#CA9841"/>
</svg>
