<svg width="64" height="64" viewBox="0 0 64 64" fill="none" xmlns="http://www.w3.org/2000/svg">
<circle cx="32" cy="32" r="32" fill="#F5ECDB"/>
<g clip-path="url(#clip0_393_14)">
<g clip-path="url(#clip1_393_14)">
<path d="M40.2289 45.0011C40.0558 44.7027 39.6735 44.6011 39.3748 44.7742L39.3507 44.7881C39.0522 44.9613 38.9506 45.3437 39.1238 45.6423C39.1649 45.7133 39.2197 45.7755 39.2849 45.8253C39.3501 45.8751 39.4245 45.9116 39.5038 45.9327C39.5832 45.9537 39.6659 45.959 39.7472 45.9481C39.8286 45.9372 39.907 45.9103 39.9779 45.8691L40.002 45.8553C40.3005 45.6821 40.4021 45.2996 40.2289 45.0011Z" fill="#CA9841"/>
<path d="M45.8559 24.005C43.7195 20.3047 40.27 17.6579 36.1429 16.552C32.0159 15.4461 27.7052 16.0137 24.0049 18.15C20.3046 20.2863 17.6577 23.7358 16.5519 27.8629C15.4461 31.9899 16.0136 36.3008 18.1499 40.001C20.0662 43.3202 23.112 45.8428 26.7261 47.1039C28.4258 47.697 30.2132 47.9999 32.0134 47.9999C33.955 47.9999 35.893 47.6471 37.725 46.943C38.0472 46.8192 38.2079 46.4576 38.084 46.1354C37.9602 45.8133 37.5985 45.6523 37.2765 45.7764C32.4002 47.6506 27.1214 46.799 23.1774 43.8386L23.7374 40.9158L24.0072 40.8282C25.0267 40.4969 25.5867 39.3979 25.2556 38.3783L25.0576 37.769C25.0118 37.629 25.012 37.478 25.0582 37.3381C25.1441 37.0762 25.1733 36.799 25.1439 36.525C25.1146 36.2509 25.0273 35.9863 24.8879 35.7485C24.7484 35.5108 24.56 35.3054 24.3352 35.146C24.1104 34.9866 23.8542 34.8768 23.5837 34.8238L22.1731 34.5482L19.4514 32.4788C19.371 32.4177 19.2771 32.377 19.1776 32.3601C19.0781 32.3432 18.976 32.3507 18.88 32.3819L17.2865 32.8995C17.2528 32.3312 17.2521 31.7614 17.2843 31.1931C17.3283 31.2335 17.3713 31.275 17.4133 31.3176C17.4446 31.3698 17.4834 31.4173 17.5284 31.4584C17.6585 31.5769 17.7764 31.6306 18.0239 31.6306C18.2513 31.6306 18.588 31.5853 19.1439 31.5031C19.4967 31.4505 19.849 31.395 20.2009 31.3365C20.3043 31.3191 20.4016 31.276 20.484 31.2112C20.5664 31.1463 20.6311 31.0618 20.6723 30.9653C20.7134 30.8689 20.7296 30.7636 20.7194 30.6593C20.7092 30.5549 20.6729 30.4548 20.6139 30.3682L19.8475 29.2442L20.9452 28.4593C21.0183 28.407 21.0793 28.3396 21.124 28.2616L22.8254 25.2913L23.5112 24.5564C24.212 23.8053 24.412 22.7063 24.0207 21.7566C23.7898 21.1964 23.3865 20.73 22.8822 20.4157C23.4358 19.9802 24.0199 19.5847 24.6299 19.2324C26.901 17.9212 29.3795 17.2858 31.8319 17.2614L30.7159 18.6614L26.5775 20.1122C26.4944 20.1413 26.4184 20.1877 26.3544 20.2482C26.2905 20.3088 26.2401 20.3822 26.2065 20.4636L25.0508 23.2653C25.0104 23.3632 24.9956 23.4698 25.0076 23.575C25.0197 23.6802 25.0583 23.7806 25.1199 23.8668L26.8079 26.2313C26.5661 26.4518 26.3308 26.7731 26.0497 27.1719C25.9265 27.3469 25.8101 27.5121 25.7297 27.6047C25.6604 27.6842 25.5906 27.7634 25.5204 27.8421C25.1573 28.2505 24.7819 28.6729 24.5152 29.2372C23.9289 30.4784 24.0473 31.921 24.8243 33.0021C25.5756 34.0474 26.8142 34.5788 28.1362 34.4233C28.3516 34.3981 28.5524 34.3484 28.7467 34.3003C29.2825 34.1677 29.4523 34.1544 29.6242 34.3153C29.7078 34.3936 29.7155 34.4084 29.7138 34.674C29.7126 34.843 29.7113 35.0533 29.7695 35.2933C29.8629 35.6774 30.104 35.9428 30.2978 36.1561C30.3941 36.262 30.4937 36.3716 30.5244 36.4452C30.7194 36.9123 30.6345 37.171 30.4485 37.7379C30.4321 37.7874 30.416 37.837 30.4 37.8866C30.1174 38.7613 30.5113 39.6289 30.8588 40.3943C30.9717 40.6429 31.0782 40.8775 31.148 41.0849C31.71 42.7523 32.1312 43.1342 32.4693 43.2879C32.6464 43.3684 32.8296 43.4038 33.0147 43.4037C33.9157 43.4036 34.8558 42.5671 35.2877 42.0368C35.5589 41.7038 35.6257 41.3704 35.6745 41.1268C35.6988 41.0057 35.7179 40.9101 35.7544 40.8476C35.8103 40.7519 35.8761 40.6778 35.9594 40.5839C36.127 40.3953 36.3355 40.1605 36.4706 39.7349C36.5732 39.4117 36.6478 39.3324 36.8947 39.0694C36.941 39.0204 36.987 38.971 37.0327 38.9214C37.8652 38.0156 37.6508 37.3236 37.4237 36.591C37.2327 35.9746 37.5669 35.5803 38.3749 34.8279C38.7251 34.5017 39.0872 34.1644 39.3672 33.7592C39.4897 33.5818 39.8624 33.0423 39.6317 32.5074C39.4057 31.9831 38.8311 31.8949 38.3695 31.8242C38.1872 31.7962 37.9117 31.7539 37.824 31.6966C37.4373 31.4438 37.2007 30.9162 36.9719 30.4059C36.9264 30.3043 36.8814 30.2041 36.8359 30.1068C36.7546 29.9331 36.6734 29.7231 36.5875 29.5007C36.3601 28.9122 36.1024 28.2451 35.6637 27.7801C35.2694 27.3623 34.5261 27.1611 33.8703 26.9834C33.6497 26.9238 33.4415 26.8674 33.3042 26.8167C33.1893 26.7742 33.0644 26.7665 32.9452 26.7945C32.626 26.8693 32.4269 26.9518 32.279 27.0703C32.2399 27.1016 32.1242 27.2044 32.0565 27.3696C31.8277 27.2598 31.513 27.0501 31.3194 26.9211L31.3074 26.913C31.3726 26.6519 31.3135 26.4423 31.2517 26.3114C30.9025 25.5729 29.7436 25.6308 29.515 25.6502C29.3851 25.6611 29.2208 25.6669 29.047 25.673C28.774 25.6827 28.4722 25.6936 28.1737 25.7271L28.189 25.6842C28.4157 25.0528 29.0187 24.6285 29.6895 24.6285H30.0449C30.3899 24.6285 30.6698 24.3486 30.6698 24.0036C30.6698 23.6585 30.3899 23.3786 30.0449 23.3786H29.6895C28.6935 23.3786 27.7815 23.9028 27.2703 24.7279L26.3381 23.4221L27.2552 21.199L31.2992 19.7813C31.4101 19.7424 31.5078 19.673 31.5811 19.5811L33.3788 17.3261C37.9722 17.7631 42.2959 20.3384 44.7735 24.6298C45.4211 25.7515 45.9164 26.9545 46.2462 28.2071L45.9813 28.4433C45.81 28.5965 45.6722 28.7835 45.5765 28.9924C45.4807 29.2014 45.4292 29.4278 45.4251 29.6576C45.425 29.6627 45.4249 29.6677 45.4247 29.6727L44.9931 28.4857C44.9291 28.3091 44.8338 28.1456 44.7117 28.0029L43.9417 27.1015C43.7946 26.929 43.6117 26.7905 43.4058 26.6956C43.1999 26.6007 42.9759 26.5516 42.7492 26.5518H41.8067C41.6428 26.5516 41.482 26.596 41.3414 26.6802C41.2008 26.7644 41.0858 26.8853 41.0086 27.0298C40.9311 27.1742 40.8944 27.337 40.9023 27.5007C40.9103 27.6644 40.9626 27.8228 41.0536 27.9591L41.149 28.1023C40.54 28.6259 39.8356 29.045 39.0856 29.3276L37.7937 26.8531V26.301C37.7937 26.2165 37.7766 26.1329 37.7434 26.0552C37.7101 25.9775 37.6614 25.9073 37.6003 25.849L36.437 24.7384C36.3728 24.6772 36.2963 24.6303 36.2126 24.6009L35.1654 24.2329C34.8396 24.1183 34.483 24.2897 34.3686 24.6153C34.2542 24.9409 34.4254 25.2976 34.751 25.4121L35.6712 25.7355L36.5439 26.5684V27.0064C36.5439 27.1071 36.5682 27.2064 36.6149 27.2957L38.2322 30.3936C38.3024 30.5284 38.4194 30.6328 38.5612 30.6875C38.703 30.7422 38.8598 30.7434 39.0024 30.6908L39.4733 30.5171C40.5674 30.1136 41.5814 29.4646 42.4059 28.6402C42.5081 28.538 42.5717 28.4036 42.5859 28.2599C42.6002 28.1161 42.5641 27.9718 42.484 27.8516L42.4507 27.8017H42.7492C42.7952 27.8017 42.8407 27.8116 42.8826 27.8309C42.9244 27.8502 42.9615 27.8783 42.9914 27.9134L43.7614 28.8148C43.7862 28.8439 43.8054 28.8768 43.8185 28.9128L44.6682 31.2493C44.7041 31.348 44.7644 31.4361 44.8434 31.5053C44.9224 31.5746 45.0175 31.6229 45.1201 31.6456C45.2227 31.6684 45.3294 31.6649 45.4302 31.6355C45.5311 31.6061 45.623 31.5518 45.6973 31.4775L46.1017 31.0731C46.3579 30.8169 46.5342 30.4928 46.6184 30.1334C47.2439 35.1463 45.2784 40.3318 41.1237 43.5926C40.8522 43.8057 40.8048 44.1985 41.018 44.4701C41.231 44.7416 41.6238 44.789 41.8954 44.5758C44.8949 42.2216 46.9555 38.8544 47.6977 35.0945C48.4469 31.2983 47.7928 27.3599 45.8559 24.005ZM18.9551 33.6717L21.5322 35.6311C21.6083 35.689 21.6967 35.7287 21.7906 35.747L23.3439 36.0505C23.5421 36.0893 23.7075 36.2065 23.8097 36.3808C23.9119 36.5549 23.9334 36.7565 23.8705 36.9484C23.7411 37.3402 23.7405 37.763 23.8688 38.1551L24.0668 38.7644C24.1851 39.1285 23.985 39.5211 23.6209 39.6394L22.9999 39.8412C22.8935 39.8757 22.7984 39.9382 22.7244 40.0221C22.6504 40.1059 22.6003 40.2081 22.5792 40.3179L22.0794 42.9273C20.9804 41.9214 20.0155 40.7327 19.2324 39.3761C18.2769 37.7213 17.6799 35.9563 17.4167 34.1715L18.9551 33.6717ZM22.5974 23.7036L21.8622 24.4913C21.8294 24.5265 21.8007 24.5654 21.7768 24.6071L20.1073 27.5219L18.6235 28.5829C18.4906 28.6779 18.4002 28.8211 18.3716 28.9819C18.3431 29.1427 18.3786 29.3084 18.4706 29.4433L19.0255 30.2573C18.7057 30.3049 18.4186 30.3442 18.2277 30.365C18.1898 30.3288 18.1515 30.2929 18.113 30.2573C17.9644 30.1193 17.758 29.9349 17.4502 29.6656C17.9578 26.5242 19.4715 23.5647 21.8523 21.3056C22.3082 21.4492 22.6823 21.7893 22.865 22.2328C23.0707 22.7317 22.9655 23.3091 22.5974 23.7036ZM27.693 27.1188C27.9718 26.9619 28.6188 26.939 29.0912 26.9223C29.2805 26.9156 29.4594 26.9092 29.6191 26.8958C29.7034 26.8888 29.797 26.8901 29.8854 26.8969C29.8299 27.0393 29.8285 27.197 29.8815 27.3403C29.9345 27.4836 30.0381 27.6025 30.1729 27.6745C30.2901 27.7373 30.4533 27.8461 30.626 27.9613C31.1145 28.2869 31.6682 28.6559 32.1883 28.6891C32.6613 28.7198 32.9245 28.4502 33.0372 28.3354C33.0462 28.3263 33.0547 28.3171 33.0637 28.3088C33.1325 28.2523 33.1894 28.1827 33.231 28.104C33.3309 28.1326 33.4359 28.161 33.5435 28.1902C33.9136 28.2904 34.6024 28.4769 34.7546 28.6381C35.0249 28.9247 35.2356 29.4701 35.4215 29.9513C35.5155 30.1945 35.6042 30.424 35.7038 30.6368C35.7465 30.7281 35.7886 30.8222 35.8314 30.9174C36.1197 31.5607 36.4466 32.2898 37.14 32.7431C37.4545 32.9486 37.8399 33.0077 38.18 33.0599C38.2212 33.0662 38.2683 33.0734 38.3162 33.0813C38.1143 33.3629 37.8269 33.6306 37.5232 33.9134C36.7495 34.6339 35.7866 35.5306 36.23 36.9612C36.4394 37.6367 36.4491 37.7097 36.1125 38.0758C36.0667 38.1258 36.0239 38.1713 35.9839 38.2139C35.6956 38.5208 35.4679 38.7631 35.2794 39.3569C35.2247 39.5293 35.1537 39.6092 35.0249 39.7542C34.9219 39.8702 34.7936 40.0147 34.6753 40.2172C34.5335 40.4598 34.4867 40.6934 34.4491 40.8811C34.412 41.0658 34.391 41.1585 34.3185 41.2475C34.1535 41.4501 33.8456 41.7444 33.5295 41.9452C33.2358 42.1317 33.0643 42.1572 33.0059 42.1537C32.9392 42.0822 32.6976 41.7691 32.3326 40.6858C32.2426 40.4186 32.1177 40.1436 31.997 39.8776C31.7308 39.2914 31.4556 38.6851 31.5895 38.2708C31.6053 38.2219 31.6209 38.1742 31.6363 38.1275C31.8502 37.4756 32.052 36.8601 31.678 35.9638C31.5642 35.6909 31.3829 35.4914 31.223 35.3154C31.1196 35.2016 31.0024 35.0726 30.9844 34.9984C30.9624 34.9078 30.963 34.8033 30.9639 34.6822C30.966 34.3556 30.9692 33.8622 30.4787 33.4028C29.787 32.7554 28.9805 32.9549 28.4468 33.0869C28.2829 33.1274 28.128 33.1658 27.9907 33.1819C27.1127 33.2848 26.3289 32.9535 25.8395 32.2725C25.3275 31.5602 25.2532 30.6016 25.6456 29.771C25.8355 29.3691 26.1225 29.0461 26.4547 28.6724C26.5273 28.5907 26.6005 28.5083 26.6738 28.4239C26.7957 28.2834 26.9298 28.0932 27.0716 27.8918C27.2409 27.6514 27.5562 27.2039 27.693 27.1188Z" fill="#CA9841"/>
<path d="M41.6263 37.5174L41.3256 36.384C41.2935 36.263 41.2259 36.1545 41.1314 36.0725C41.0369 35.9904 40.92 35.9386 40.7958 35.9237C40.6715 35.909 40.5457 35.9319 40.4345 35.9894C40.3234 36.0469 40.2321 36.1364 40.1723 36.2463C40.1038 36.3726 40.0421 36.5063 39.9825 36.6356C39.8821 36.8532 39.7784 37.0782 39.6705 37.2024C39.6098 37.2721 39.4541 37.3473 39.3036 37.4199C38.9438 37.5936 38.451 37.8314 38.2627 38.4315C38.1458 38.8037 38.1895 39.0982 38.2213 39.3132C38.2489 39.4997 38.2553 39.5643 38.2053 39.6816L38.1991 39.6961C38.0001 40.1629 37.63 41.032 38.149 41.7708C38.5193 42.2981 38.9087 42.4336 39.2113 42.4336C39.2671 42.4337 39.3228 42.4292 39.3779 42.4202C40.0154 42.316 40.4946 41.6529 40.8863 40.3331L41.6214 37.8556C41.6541 37.7454 41.6558 37.6284 41.6263 37.5174ZM39.6881 39.9776C39.4885 40.6504 39.3118 40.9646 39.2099 41.1038C39.1981 41.0888 39.1854 41.0718 39.1718 41.0524C39.0523 40.8822 39.2308 40.4632 39.349 40.1859L39.3553 40.1713C39.5458 39.7242 39.4948 39.3808 39.4578 39.1301C39.434 38.9695 39.4255 38.9005 39.4553 38.8057C39.4798 38.7277 39.6262 38.6521 39.8468 38.5456C39.9446 38.4984 40.0523 38.4464 40.161 38.3836L39.6881 39.9776ZM32.8768 23.4287L32.8346 23.414C32.5092 23.3 32.1523 23.4712 32.0381 23.7969C31.9238 24.1226 32.0953 24.4792 32.421 24.5934L32.4631 24.6082C32.5296 24.6316 32.5995 24.6435 32.67 24.6436C32.928 24.6436 33.1695 24.4825 33.2597 24.2253C33.374 23.8996 33.2025 23.5429 32.8768 23.4287Z" fill="#CA9841"/>
</g>
</g>
<defs>
<clipPath id="clip0_393_14">
<rect width="32" height="32" fill="white" transform="translate(16 16)"/>
</clipPath>
<clipPath id="clip1_393_14">
<rect width="32" height="32" fill="white" transform="translate(16 16)"/>
</clipPath>
</defs>
</svg>
